<svg width="21" height="21" viewBox="0 0 21 21" fill="none" xmlns="http://www.w3.org/2000/svg">
<g clip-path="url(#clip0_104_161)">
<path d="M7.31555 0.690708C5.21732 1.4186 3.40781 2.80017 2.15281 4.63248C0.897812 6.46479 0.263469 8.65126 0.342959 10.8707C0.422448 13.0902 1.21158 15.2257 2.59444 16.9635C3.97731 18.7014 5.88101 19.9499 8.02594 20.5259C9.76487 20.9746 11.5868 20.9943 13.335 20.5833C14.9187 20.2276 16.3829 19.4666 17.5842 18.375C18.8345 17.2042 19.742 15.7147 20.2092 14.0667C20.717 12.2746 20.8074 10.39 20.4734 8.55751H10.7084V12.6082H16.3636C16.2506 13.2543 16.0084 13.8709 15.6515 14.4212C15.2946 14.9714 14.8304 15.444 14.2866 15.8107C13.596 16.2675 12.8175 16.5749 12.0012 16.7131C11.1824 16.8653 10.3426 16.8653 9.52383 16.7131C8.69398 16.5415 7.90896 16.199 7.21875 15.7073C6.10993 14.9225 5.27736 13.8074 4.83984 12.5213C4.39493 11.211 4.39493 9.79061 4.83984 8.4804C5.15128 7.562 5.66612 6.72581 6.34594 6.03422C7.12391 5.22826 8.10884 4.65216 9.19268 4.36911C10.2765 4.08607 11.4174 4.10703 12.4901 4.42969C13.3281 4.68693 14.0944 5.13637 14.7279 5.74219C15.3655 5.10782 16.0021 4.4718 16.6376 3.83415C16.9657 3.49126 17.3234 3.16477 17.6466 2.81368C16.6795 1.91375 15.5444 1.2135 14.3062 0.753052C12.0515 -0.0656372 9.58449 -0.0876386 7.31555 0.690708Z" fill="white"/>
<path d="M7.31555 0.690696C9.58431 -0.088179 12.0514 -0.0667567 14.3062 0.751399C15.5446 1.21498 16.6792 1.9186 17.6449 2.82187C17.3168 3.17296 16.9706 3.50109 16.6359 3.84234C15.9994 4.47781 15.3634 5.11109 14.7279 5.74218C14.0944 5.13636 13.3281 4.68692 12.4901 4.42968C11.4177 4.10589 10.2769 4.08372 9.19278 4.3656C8.10866 4.64749 7.12312 5.22253 6.3443 6.02765C5.66448 6.71923 5.14964 7.55543 4.8382 8.47382L1.43719 5.84062C2.65454 3.42654 4.76232 1.57995 7.31555 0.690696Z" fill="#E33629"/>
<path d="M0.534842 8.44922C0.717643 7.54325 1.02113 6.6659 1.43719 5.84062L4.8382 8.48039C4.39329 9.7906 4.39329 11.211 4.8382 12.5212C3.70508 13.3962 2.5714 14.2756 1.43719 15.1594C0.395636 13.0861 0.0779818 10.7239 0.534842 8.44922Z" fill="#F8BD00"/>
<path d="M10.7084 8.55586H20.4734C20.8074 10.3883 20.717 12.273 20.2092 14.0651C19.742 15.7131 18.8345 17.2025 17.5842 18.3734C16.4866 17.517 15.3841 16.6671 14.2866 15.8107C14.8307 15.4437 15.2952 14.9705 15.6521 14.4197C16.009 13.8688 16.251 13.2516 16.3636 12.6049H10.7084C10.7067 11.2563 10.7084 9.9061 10.7084 8.55586Z" fill="#587DBD"/>
<path d="M1.43555 15.1594C2.56977 14.2844 3.70344 13.405 4.83656 12.5213C5.27495 13.8078 6.10871 14.923 7.21875 15.7073C7.91111 16.1967 8.69782 16.5364 9.52875 16.7048C10.3475 16.8571 11.1873 16.8571 12.0061 16.7048C12.8225 16.5667 13.6009 16.2593 14.2915 15.8025C15.3891 16.6589 16.4916 17.5088 17.5891 18.3652C16.388 19.4574 14.9238 20.2189 13.3399 20.5751C11.5917 20.9861 9.7698 20.9664 8.03086 20.5177C6.65553 20.1504 5.37087 19.5031 4.25742 18.6162C3.0789 17.6805 2.11633 16.5014 1.43555 15.1594Z" fill="#319F43"/>
</g>
<defs>
<clipPath id="clip0_104_161">
<rect width="21" height="21" fill="white"/>
</clipPath>
</defs>
</svg>
